PathFileType	4	(X/Y/Z)	C:/Users/opensim2020/Desktop/walking_exp_matlab/subject01_walking06_straight_03.trc	
DataRate	CameraRate	NumFrames	NumMarkers	Units	OrigDataRate	OrigDataStartFrame	OrigNumFrames	
100.00	100.00	4	43	mm	100.00	2208	206	
Frame#	Time	LFHD			RFHD			LBHD			RBHD			C7			T10			CLAV			STRN			RBAK			LSHO			LUPA			LELB			LFRM			LWRA			LWRB			LFIN			RSHO			RUPA			RELB			RFRM			RWRA			RWRB			RFIN			LASI			RASI			LPSI			RPSI			LTHI			LKNE			LTIB			LANK			LHEE			LTOE			RTHI			RKNE			RTIB			RANK			RHEE			RTOE			*39			*40			*41			*42			
		X1	Y1	Z1	X2	Y2	Z2	X3	Y3	Z3	X4	Y4	Z4	X5	Y5	Z5	X6	Y6	Z6	X7	Y7	Z7	X8	Y8	Z8	X9	Y9	Z9	X10	Y10	Z10	X11	Y11	Z11	X12	Y12	Z12	X13	Y13	Z13	X14	Y14	Z14	X15	Y15	Z15	X16	Y16	Z16	X17	Y17	Z17	X18	Y18	Z18	X19	Y19	Z19	X20	Y20	Z20	X21	Y21	Z21	X22	Y22	Z22	X23	Y23	Z23	X24	Y24	Z24	X25	Y25	Z25	X26	Y26	Z26	X27	Y27	Z27	X28	Y28	Z28	X29	Y29	Z29	X30	Y30	Z30	X31	Y31	Z31	X32	Y32	Z32	X33	Y33	Z33	X34	Y34	Z34	X35	Y35	Z35	X36	Y36	Z36	X37	Y37	Z37	X38	Y38	Z38	X39	Y39	Z39	X40	Y40	Z40	X41	Y41	Z41	X42	Y42	Z42	X43	Y43	Z43	

104	1.030	1424.08887	-64.54037	1670.65222	1532.48889	-27.98359	1674.79285	1456.68848	-179.29474	1632.45129	1571.74976	-143.63223	1636.15491	1491.85254	-219.17482	1436.78540	1489.09814	-257.92648	1143.37854	1477.28320	-76.60086	1366.29822	1464.06006	-36.41513	1212.89575	1565.41797	-270.37927	1239.73157	1322.97717	-148.41364	1402.39124	1233.97241	-193.81146	1223.81812	1227.26208	-216.55522	1073.98340	1199.74072	-179.83011	965.14594	1217.83594	-104.04917	848.33331	1190.81750	-157.61632	845.21472	1183.28491	-109.95676	774.71985	1634.29517	-128.37956	1388.32007	1733.77832	-162.82368	1183.71631	1736.88843	-148.04643	1058.89282	1764.73560	-95.70067	948.96729	1741.91772	6.49393	852.06183	1782.81409	-34.63561	844.05261	1779.96692	17.68751	777.04846	1370.66809	-92.49628	936.83118	1587.15430	-80.93104	938.03900	1429.67969	-275.02347	949.12695	1574.97473	-268.66925	955.06390	1299.81421	-57.80905	616.08160	1308.33167	-43.62381	484.44604	1310.18262	-173.11609	353.91299	1362.90051	-309.44873	185.25981	1424.41467	-354.21329	180.25317	1333.45874	-222.28355	72.07378	1631.73730	-133.84520	603.28351	1599.91125	-123.44443	445.12979	1598.28577	-179.24811	276.37708	1538.26892	-205.13811	74.16336	1487.06409	-254.55389	39.73540	1533.92114	-64.18860	34.09933	1513.39111	-41.74212	1709.86145	-3102.07446	1972.93701	1023.76044	-3140.73828	2012.61072	1022.00183			 
105	1.040	1424.04651	-55.20604	1670.63953	1532.41003	-18.55701	1674.79468	1456.78406	-170.10008	1632.72595	1571.81396	-134.31552	1636.40637	1492.07263	-210.33546	1437.05432	1489.29761	-249.26218	1143.67029	1477.47925	-67.84721	1366.42273	1464.56677	-27.81189	1212.95239	1565.71655	-261.64691	1240.05115	1323.17712	-139.40506	1402.61255	1234.44775	-185.90608	1224.10071	1228.29004	-209.94398	1074.68811	1200.57336	-176.53122	965.13708	1218.85828	-103.57447	846.15564	1191.82385	-157.25375	844.60699	1184.33435	-111.54250	772.59296	1634.53162	-119.65108	1388.63220	1734.19739	-153.60974	1183.96704	1737.56714	-137.24141	1059.06897	1765.15088	-82.25362	950.14185	1741.87122	22.44800	856.11609	1782.73010	-18.42994	846.85693	1780.02087	35.81983	781.66589	1370.97510	-83.50078	937.53571	1587.77002	-73.14392	937.91797	1429.22632	-266.44690	949.49023	1574.27869	-260.33066	955.10272	1300.05066	-44.63802	618.22864	1309.15466	-29.21335	486.55908	1310.46497	-154.13857	351.08252	1363.30347	-285.14423	178.17981	1425.26428	-329.35962	169.94852	1331.36438	-193.00191	70.20094	1631.61780	-129.06252	603.20239	1599.93787	-119.95574	444.90506	1598.20898	-177.20457	276.64780	1538.08008	-204.64520	74.59039	1486.57275	-254.29620	40.23720	1533.86340	-63.99969	34.06750	1513.31030	-32.27523	1709.87878	-3102.01221	1973.05286	1023.99591	-3140.68750	2012.46375	1021.99316			 
106	1.050	1423.93140	-46.02142	1670.55469	1532.24500	-9.25432	1674.74353	1456.93152	-160.97150	1632.96790	1571.83362	-124.98975	1636.63684	1492.19214	-201.43594	1437.22046	1489.51392	-240.64874	1143.92407	1477.67834	-59.10338	1366.42920	1464.95313	-19.13474	1212.92273	1566.03845	-252.95239	1240.32544	1323.30884	-130.45416	1402.70728	1234.80676	-177.97588	1224.32996	1229.25842	-203.12917	1075.47839	1201.52454	-172.73174	965.15381	1219.87292	-102.92448	844.12427	1192.69897	-156.64983	844.08643	1185.38953	-113.08636	770.63318	1634.70032	-110.92334	1388.89587	1734.55823	-144.39890	1184.32104	1738.20569	-126.58668	1059.25415	1765.51929	-68.91969	951.36133	1741.76782	38.14349	860.24908	1782.60852	-2.43225	849.67712	1779.97437	53.76475	786.49750	1371.52258	-74.60959	938.07855	1588.31042	-65.32945	937.69580	1428.76855	-257.86636	949.76910	1573.68506	-252.42838	955.14105	1300.34375	-31.78629	620.21143	1309.86768	-14.84736	488.30167	1311.00818	-135.63156	347.70532	1363.79272	-260.21490	170.46783	1425.72900	-303.51248	159.07257	1329.09094	-163.12386	68.19952	1631.43848	-124.07521	602.98871	1599.93079	-116.52290	444.60651	1598.14661	-175.14226	276.89938	1537.90784	-204.20055	75.03221	1486.15820	-253.74619	40.70063	1533.74353	-63.84032	34.03331	1513.12476	-22.88654	1709.85327	-3101.83545	1973.06763	1023.34204	-3140.61255	2012.60205	1022.11682			 
107	1.060	1423.77930	-36.87391	1670.38928	1532.02576	0.03247	1674.65210	1456.86865	-151.76743	1632.91150	1571.75500	-115.76249	1636.69629	1492.28564	-192.56793	1437.30261	1489.75122	-232.01692	1144.11572	1477.77893	-50.30550	1366.34497	1465.31543	-10.45328	1212.79700	1566.33813	-244.21272	1240.55652	1323.38159	-121.44951	1402.67908	1235.16187	-169.88538	1224.34180	1230.24292	-196.48688	1075.94763	1202.33887	-168.73836	965.20734	1220.80176	-102.15792	842.18475	1193.41211	-155.78828	843.70728	1186.51257	-114.49847	768.88312	1634.83508	-102.10403	1389.08972	1734.88538	-135.10785	1184.55066	1738.95544	-116.00507	1059.46375	1765.90918	-55.78036	952.57959	1741.52673	53.48320	864.42188	1782.43506	13.32928	852.58722	1779.70789	71.40089	791.25836	1372.02637	-65.86337	938.44373	1588.78625	-57.49411	937.29236	1428.21240	-249.26529	949.88763	1573.13062	-244.54024	955.15759	1300.57983	-19.17137	622.01282	1310.68506	-1.32527	489.78198	1311.66040	-117.29238	344.18884	1364.10193	-234.38356	162.10164	1426.44849	-276.57956	147.55840	1326.95251	-132.66478	66.06713	1631.32849	-118.92937	602.80902	1599.86255	-113.09991	444.18930	1597.97412	-173.10928	277.17438	1537.76550	-203.83089	75.52476	1486.03320	-253.16304	41.42270	1533.68433	-63.64661	33.93751	1512.92322	-13.56199	1709.75916	-3101.90039	1973.07483	1023.85406	-3140.78027	2012.52051	1022.13416			 
